<svg xmlns="http://www.w3.org/2000/svg" viewBox="0 0 500 500"><g id="freepik--background-complete--inject-1"><rect y="382.4" width="500" height="0.25" style="fill:#ebebeb"></rect><rect x="416.78" y="398.49" width="33.12" height="0.25" style="fill:#ebebeb"></rect><rect x="322.53" y="401.21" width="8.69" height="0.25" style="fill:#ebebeb"></rect><rect x="396.59" y="389.21" width="19.19" height="0.25" style="fill:#ebebeb"></rect><rect x="52.46" y="390.89" width="43.19" height="0.25" style="fill:#ebebeb"></rect><rect x="104.56" y="390.89" width="6.33" height="0.25" style="fill:#ebebeb"></rect><rect x="131.47" y="395.11" width="93.68" height="0.25" style="fill:#ebebeb"></rect><path d="M237,337.8H43.91a5.71,5.71,0,0,1-5.7-5.71V60.66A5.71,5.71,0,0,1,43.91,55H237a5.71,5.71,0,0,1,5.71,5.71V332.09A5.71,5.71,0,0,1,237,337.8ZM43.91,55.2a5.46,5.46,0,0,0-5.45,5.46V332.09a5.46,5.46,0,0,0,5.45,5.46H237a5.47,5.47,0,0,0,5.46-5.46V60.66A5.47,5.47,0,0,0,237,55.2Z" style="fill:#ebebeb"></path><path d="M453.31,337.8H260.21a5.72,5.72,0,0,1-5.71-5.71V60.66A5.72,5.72,0,0,1,260.21,55h193.1A5.71,5.71,0,0,1,459,60.66V332.09A5.71,5.71,0,0,1,453.31,337.8ZM260.21,55.2a5.47,5.47,0,0,0-5.46,5.46V332.09a5.47,5.47,0,0,0,5.46,5.46h193.1a5.47,5.47,0,0,0,5.46-5.46V60.66a5.47,5.47,0,0,0-5.46-5.46Z" style="fill:#ebebeb"></path><polygon points="359.66 169.43 407.69 169.43 406.95 162.94 358.92 162.94 359.66 169.43" style="fill:#f5f5f5"></polygon><polygon points="363.1 199.79 411.13 199.79 410.39 193.3 362.36 193.3 363.1 199.79" style="fill:#f5f5f5"></polygon><polygon points="366.54 230.15 414.57 230.15 413.83 223.65 365.8 223.65 366.54 230.15" style="fill:#f5f5f5"></polygon><polygon points="369.97 260.5 418.01 260.5 417.27 254.01 369.24 254.01 369.97 260.5" style="fill:#f5f5f5"></polygon><polygon points="373.41 290.86 421.44 290.86 420.71 284.36 372.68 284.36 373.41 290.86" style="fill:#f5f5f5"></polygon><polygon points="376.85 321.21 424.88 321.21 424.15 314.72 376.12 314.72 376.85 321.21" style="fill:#f5f5f5"></polygon><polygon points="380.29 351.57 428.32 351.57 427.59 345.07 379.56 345.07 380.29 351.57" style="fill:#f5f5f5"></polygon><polygon points="428.52 382.45 436.04 382.45 409.7 150.02 402.18 150.02 428.52 382.45" style="fill:#ebebeb"></polygon><polygon points="379.57 382.45 387.1 382.45 360.76 150.02 353.24 150.02 379.57 382.45" style="fill:#ebebeb"></polygon><rect x="288.5" y="111.15" width="123.86" height="7.14" transform="translate(700.87 229.45) rotate(180)" style="fill:#f0f0f0"></rect><path d="M311.26,91.7l-.73-1a1.38,1.38,0,0,0-1.12-.59h-5.08a1.22,1.22,0,0,0-1.06.59l-.6,1a1.23,1.23,0,0,1-1.06.59h-3a1.23,1.23,0,0,0-1.24,1.32l1,17a1.41,1.41,0,0,0,1.38,1.32h24a1.22,1.22,0,0,0,1.23-1.32l-1-17a1.41,1.41,0,0,0-1.38-1.32H312.38A1.38,1.38,0,0,1,311.26,91.7Z" style="fill:#e0e0e0"></path><path d="M325,93.91H303a1.85,1.85,0,0,0-1.81,1.65l-1.33,14.7a1.49,1.49,0,0,0,1.52,1.65h22a1.85,1.85,0,0,0,1.81-1.65l1.32-14.7A1.48,1.48,0,0,0,325,93.91Z" style="fill:#e6e6e6"></path><path d="M351.26,91.7l-.73-1a1.38,1.38,0,0,0-1.12-.59h-5.08a1.22,1.22,0,0,0-1.06.59l-.6,1a1.23,1.23,0,0,1-1.06.59h-3a1.23,1.23,0,0,0-1.24,1.32l1,17a1.41,1.41,0,0,0,1.38,1.32h24a1.22,1.22,0,0,0,1.23-1.32l-1-17a1.41,1.41,0,0,0-1.38-1.32H352.38A1.38,1.38,0,0,1,351.26,91.7Z" style="fill:#e0e0e0"></path><path d="M365,93.91H343a1.85,1.85,0,0,0-1.81,1.65l-1.33,14.7a1.49,1.49,0,0,0,1.52,1.65h22a1.85,1.85,0,0,0,1.81-1.65l1.32-14.7A1.48,1.48,0,0,0,365,93.91Z" style="fill:#e6e6e6"></path><path d="M391.26,91.7l-.73-1a1.38,1.38,0,0,0-1.12-.59h-5.08a1.22,1.22,0,0,0-1.06.59l-.6,1a1.23,1.23,0,0,1-1.06.59h-3a1.23,1.23,0,0,0-1.24,1.32l1,17a1.41,1.41,0,0,0,1.38,1.32h24a1.22,1.22,0,0,0,1.23-1.32l-1-17a1.41,1.41,0,0,0-1.38-1.32H392.38A1.38,1.38,0,0,1,391.26,91.7Z" style="fill:#e0e0e0"></path><path d="M405,93.91H383a1.85,1.85,0,0,0-1.81,1.65l-1.33,14.7a1.49,1.49,0,0,0,1.52,1.65h22a1.85,1.85,0,0,0,1.81-1.65l1.32-14.7A1.48,1.48,0,0,0,405,93.91Z" style="fill:#e6e6e6"></path><rect x="68.81" y="102.42" width="145.73" height="92.7" style="fill:#f5f5f5"></rect><rect x="68.81" y="102.42" width="145.73" height="6.28" style="fill:#e0e0e0"></rect><path d="M212.38,105.56a1.9,1.9,0,1,1-1.9-1.9A1.9,1.9,0,0,1,212.38,105.56Z" style="fill:#fafafa"></path><path d="M206.09,105.56a1.9,1.9,0,1,1-1.9-1.9A1.9,1.9,0,0,1,206.09,105.56Z" style="fill:#fafafa"></path><path d="M199.8,105.56a1.9,1.9,0,1,1-1.89-1.9A1.89,1.89,0,0,1,199.8,105.56Z" style="fill:#fafafa"></path><path d="M95.17,119.59l-.9-1.25a1.73,1.73,0,0,0-1.4-.73H86.55a1.51,1.51,0,0,0-1.31.73l-.75,1.25a1.54,1.54,0,0,1-1.32.73H79.4A1.52,1.52,0,0,0,77.87,122l1.22,21.11a1.75,1.75,0,0,0,1.72,1.64h29.9a1.52,1.52,0,0,0,1.53-1.64L111,122a1.75,1.75,0,0,0-1.72-1.64H96.56A1.75,1.75,0,0,1,95.17,119.59Z" style="fill:#e0e0e0"></path><path d="M112.29,122.33H84.9a2.31,2.31,0,0,0-2.26,2L81,142.66a1.85,1.85,0,0,0,1.88,2.05h27.39a2.29,2.29,0,0,0,2.25-2.05l1.65-18.28A1.85,1.85,0,0,0,112.29,122.33Z" style="fill:#e6e6e6"></path><path d="M140.78,119.59l-.9-1.25a1.73,1.73,0,0,0-1.4-.73h-6.32a1.51,1.51,0,0,0-1.31.73l-.75,1.25a1.54,1.54,0,0,1-1.32.73H125a1.52,1.52,0,0,0-1.53,1.64l1.22,21.11a1.75,1.75,0,0,0,1.72,1.64h29.9a1.52,1.52,0,0,0,1.53-1.64L156.63,122a1.75,1.75,0,0,0-1.72-1.64H142.17A1.75,1.75,0,0,1,140.78,119.59Z" style="fill:#e0e0e0"></path><path d="M157.9,122.33H130.51a2.3,2.3,0,0,0-2.26,2l-1.64,18.28a1.84,1.84,0,0,0,1.88,2.05h27.39a2.29,2.29,0,0,0,2.25-2.05l1.65-18.28A1.85,1.85,0,0,0,157.9,122.33Z" style="fill:#e6e6e6"></path><path d="M186.39,119.59l-.9-1.25a1.73,1.73,0,0,0-1.4-.73h-6.32a1.51,1.51,0,0,0-1.31.73l-.76,1.25a1.52,1.52,0,0,1-1.31.73h-3.77a1.52,1.52,0,0,0-1.53,1.64l1.22,21.11a1.75,1.75,0,0,0,1.72,1.64h29.9a1.52,1.52,0,0,0,1.53-1.64L202.24,122a1.75,1.75,0,0,0-1.72-1.64H187.78A1.73,1.73,0,0,1,186.39,119.59Z" style="fill:#e0e0e0"></path><path d="M203.5,122.33H176.11a2.3,2.3,0,0,0-2.25,2l-1.64,18.28a1.84,1.84,0,0,0,1.88,2.05h27.39a2.29,2.29,0,0,0,2.25-2.05l1.65-18.28A1.85,1.85,0,0,0,203.5,122.33Z" style="fill:#e6e6e6"></path><path d="M95.17,158.21l-.9-1.24a1.74,1.74,0,0,0-1.4-.74H86.55a1.51,1.51,0,0,0-1.31.74l-.75,1.24a1.52,1.52,0,0,1-1.32.73H79.4a1.53,1.53,0,0,0-1.53,1.65l1.22,21.11a1.75,1.75,0,0,0,1.72,1.64h29.9a1.53,1.53,0,0,0,1.53-1.64L111,160.59a1.75,1.75,0,0,0-1.72-1.65H96.56A1.72,1.72,0,0,1,95.17,158.21Z" style="fill:#e0e0e0"></path><path d="M112.29,161H84.9a2.31,2.31,0,0,0-2.26,2L81,181.29a1.85,1.85,0,0,0,1.88,2.05h27.39a2.3,2.3,0,0,0,2.25-2.05L114.17,163A1.85,1.85,0,0,0,112.29,161Z" style="fill:#e6e6e6"></path><path d="M140.78,158.21l-.9-1.24a1.74,1.74,0,0,0-1.4-.74h-6.32a1.51,1.51,0,0,0-1.31.74l-.75,1.24a1.52,1.52,0,0,1-1.32.73H125a1.52,1.52,0,0,0-1.53,1.65l1.22,21.11a1.75,1.75,0,0,0,1.72,1.64h29.9a1.53,1.53,0,0,0,1.53-1.64l-1.22-21.11a1.75,1.75,0,0,0-1.72-1.65H142.17A1.72,1.72,0,0,1,140.78,158.21Z" style="fill:#e0e0e0"></path><path d="M157.9,161H130.51a2.3,2.3,0,0,0-2.26,2l-1.64,18.28a1.85,1.85,0,0,0,1.88,2.05h27.39a2.3,2.3,0,0,0,2.25-2.05L159.78,163A1.85,1.85,0,0,0,157.9,161Z" style="fill:#e6e6e6"></path><path d="M186.39,158.21l-.9-1.24a1.74,1.74,0,0,0-1.4-.74h-6.32a1.51,1.51,0,0,0-1.31.74l-.76,1.24a1.49,1.49,0,0,1-1.31.73h-3.77a1.52,1.52,0,0,0-1.53,1.65l1.22,21.11a1.75,1.75,0,0,0,1.72,1.64h29.9a1.53,1.53,0,0,0,1.53-1.64l-1.22-21.11a1.75,1.75,0,0,0-1.72-1.65H187.78A1.71,1.71,0,0,1,186.39,158.21Z" style="fill:#e0e0e0"></path><path d="M203.5,161H176.11a2.3,2.3,0,0,0-2.25,2l-1.64,18.28a1.85,1.85,0,0,0,1.88,2.05h27.39a2.3,2.3,0,0,0,2.25-2.05L205.39,163A1.85,1.85,0,0,0,203.5,161Z" style="fill:#e6e6e6"></path><path d="M92.2,348.72c0-.35,1.19-35.11,6.84-40.61,5.5-5.34,11.81-.2,12.08,0l.56-.68c-.07-.06-7.19-5.88-13.26,0-5.9,5.74-7.06,39.76-7.1,41.21Z" style="fill:#e0e0e0"></path><path d="M91.71,355.55c.05-.42,3.87-41.73-11.22-59l-.67.58c14.84,17,11.05,58,11,58.37Z" style="fill:#e0e0e0"></path><path d="M92.27,351.18l.89-.06c0-.47-3-47,8.11-57.14l-.6-.65C89.29,303.79,92.15,349.25,92.27,351.18Z" style="fill:#e0e0e0"></path><path d="M90.83,351.15h.89c0-1.29-.37-31.41-8.93-36.31a6,6,0,0,0-5.53-.54c-5.18,2.14-7.74,11.34-7.85,11.74l.86.23c0-.09,2.55-9.18,7.33-11.16a5.22,5.22,0,0,1,4.75.49C90.47,320.26,90.83,350.84,90.83,351.15Z" style="fill:#e0e0e0"></path><path d="M94.16,351.17l.89-.05c0-.23-1.29-23.8,5.07-32.11,1.54-2,3.21-3,5-2.84,4.17.29,7.66,6.39,7.7,6.45l.77-.44c-.16-.27-3.77-6.57-8.41-6.9-2.08-.14-4,.93-5.75,3.2C92.85,327,94.11,350.19,94.16,351.17Z" style="fill:#e0e0e0"></path><path d="M92.77,354.38c.17-2.29,4.16-56.1-2.85-65.58l-.72.52c6.82,9.22,2.73,64.44,2.69,65Z" style="fill:#e0e0e0"></path><path d="M75.35,319.75s4.21,1.55,3,5.21-14.55,9.69-14.55,9.69-5.57-5.11-.46-13.41S75.24,317.13,75.35,319.75Z" style="fill:#ebebeb"></path><path d="M93.64,312.78s-4.48-.19-4.74,3.67S98.61,331,98.61,331s7.1-2.57,5.58-12.2S94.75,310.41,93.64,312.78Z" style="fill:#ebebeb"></path><path d="M97.43,294.3s-3-.32-2.75-2.14,11.61-6.5,18.32,1.07c0,0-4.3,7.38-10.51,7.48S97.43,294.3,97.43,294.3Z" style="fill:#ebebeb"></path><path d="M91.86,289.89s2.71,1.3,3.47-.37-6.42-11.65-16.11-8.78c0,0-.26,8.54,5,11.9S91.86,289.89,91.86,289.89Z" style="fill:#ebebeb"></path><path d="M106,318.28s-2.06-1.67.16-2.48,13.14-.58,13.26,10.23c0,0-12.71,2.11-14.29-2S106,318.28,106,318.28Z" style="fill:#ebebeb"></path><path d="M80.08,294s2.06-1.66-.16-2.47S66.78,291,66.67,301.78c0,0,12.71,2.12,14.28-2S80.08,294,80.08,294Z" style="fill:#ebebeb"></path><path d="M86.8,302.74s.18-2-1.45-1.23-7.32,6.93-1.42,12.75c0,0,7.93-5.87,6.5-8.94S86.8,302.74,86.8,302.74Z" style="fill:#ebebeb"></path><path d="M107.84,305.62s-1.23-1.61.58-1.81,9.89,2,8,10c0,0-9.85-.74-10.27-4.1S107.84,305.62,107.84,305.62Z" style="fill:#ebebeb"></path><polygon points="74.56 381.12 108.36 381.12 112.01 344.11 70.92 344.11 74.56 381.12" style="fill:#f0f0f0"></polygon><rect x="69.11" y="340.03" width="44.7" height="8.17" transform="translate(182.93 688.22) rotate(180)" style="fill:#e6e6e6"></rect></g><g id="freepik--Shadow--inject-1"><ellipse id="freepik--path--inject-1" cx="250" cy="416.24" rx="193.89" ry="11.32" style="fill:#f5f5f5"></ellipse></g><g id="freepik--Character--inject-1"><path d="M181.53,240.12c-.09,3.68-.76,8.36-3.65,11-3.72,3.35-10,1-12.37-2.86" style="fill:none;stroke:#263238;stroke-linecap:round;stroke-linejoin:round;stroke-width:0.706753540165186px"></path><path d="M181.33,268.35l9,6.85s2.31.31,2.95,1.15,2.82,6.84,2.34,7.57-5.33,1.75-6.21.73-2-6.48-1.93-7l-11.61-7.57Z" style="fill:#eec1bb"></path><path d="M187.55,271.82l-3.15,5.39s-16.51-10.33-19.21-12c-.6-.36-1.82-2.07-3.26-4.57-5.17-9-13.21-28.06-5.64-31.84,4.14-2.07,6.53,4.51,6.53,4.51s.48,2.09,1.21,5c.29,1.19.62,2.53,1,3.93,0,0,0,0,0,0,1.67,6.54,3.83,14.4,4.86,15.33C171.66,259.32,187.55,271.82,187.55,271.82Z" style="fill:#6363FF"></path><path d="M161.93,260.67c-5.17-9-13.21-28.06-5.64-31.84,4.14-2.07,6.53,4.51,6.53,4.51s.48,2.09,1.21,5a28.89,28.89,0,0,1,1,3.93s0,0,0,0C165.85,247,166.33,254.72,161.93,260.67Z" style="opacity:0.2;isolation:isolate"></path><path d="M138.5,248.37s-5.38,1.84-14.41-2.28c-3.94-1.79-13.48-11.53-13.48-11.53s8.2-12.13,30.85-16.51c0,0,14.88,1.93,26.11,26.17C167.57,244.22,156.57,250.21,138.5,248.37Z" style="fill:#6363FF"></path><path d="M156.4,262.39l7.14,8.8s2.17.85,2.6,1.82,1.11,7.31.47,7.91-5.59.44-6.21-.77-.42-6.77-.2-7.29l-9.48-10.11Z" style="fill:#eec1bb"></path><polygon points="155.48 398.45 149.41 399.52 146.93 391.25 144.66 383.66 151.65 381.22 153.68 390.34 155.48 398.45" style="fill:#e4897b"></polygon><polygon points="153.72 390.52 146.96 391.42 144.67 383.74 151.66 381.26 153.72 390.52" style="opacity:0.2;isolation:isolate"></polygon><polygon points="114.99 401.24 108.83 401.24 107.82 392.57 106.9 384.65 114.22 383.44 114.63 392.86 114.99 401.24" style="fill:#e4897b"></polygon><polygon points="114.63 392.94 107.82 392.64 106.9 384.69 114.22 383.45 114.63 392.94" style="opacity:0.2;isolation:isolate"></polygon><path d="M123.34,413.44a10.44,10.44,0,0,0-3.29-1.79h0s-3.58-3.54-5.3-14.23l-4.68-1.22a4,4,0,0,0-4.26,1.67,2.17,2.17,0,0,0-.3.61A27.36,27.36,0,0,0,105,402a96.9,96.9,0,0,0-.07,11.73h.85l.34-7.36c.12-2.5,2,.43,2.58,3.12s1.71,5.56,7.19,5.69C122.3,415.26,125,415,123.34,413.44Z" style="fill:#263238"></path><path d="M164.2,412.72a10.33,10.33,0,0,0-3.29-1.79h0s-3.57-3.55-5.29-14.23l-4.69-1.22a4,4,0,0,0-4.26,1.66,2.07,2.07,0,0,0-.29.62,25.22,25.22,0,0,0-.5,3.47c-.48,3.62-.07,11.73-.07,11.73h.84l.34-7.36c.13-2.5,2,.43,2.59,3.12s1.71,5.56,7.19,5.69C163.16,414.54,165.82,414.29,164.2,412.72Z" style="fill:#263238"></path><path d="M154.29,385.71l-10,1.76c-10.07-25.07-17.22-46-22.28-63.35-2.72-9.37-5-17.71-6.62-25.1l.31,27.29v61.47H105.9c-23.57-112.27-26.45-131.63,2.23-151l3.05-2.78s1,5.12,9.67,10.39c7.26,4.41,16.39,4.7,16.39,4.7l-6.58,6.26,1.33,9.77,11.51,59.49Z" style="fill:#263238"></path><g style="opacity:0.2"><path d="M154.29,385.71l-10,1.76c-10.07-25.07-17.22-46-22.28-63.35-2.72-9.37-5-17.71-6.62-25.1l.31,27.29v61.47H105.9c-23.57-112.27-26.45-131.63,2.23-151l3.05-2.78s1,5.12,9.67,10.39c7.26,4.41,16.39,4.7,16.39,4.7l-6.58,6.26,1.33,9.77,11.51,59.49Z" style="fill:#fff"></path></g><path d="M122,324.12c-2.72-9.37-4.84-17.71-6.47-25.1a230.59,230.59,0,0,1,1.9-26.17S121.79,306.61,122,324.12Z" style="opacity:0.2;isolation:isolate"></path><path d="M111.18,234S119.5,245,138.5,248.37l-3.56,2.95a42.3,42.3,0,0,1-26.81-14.5Z"></path><path d="M132.52,247.67a1.53,1.53,0,0,0-.87-.84l-3-1.22a1.77,1.77,0,0,0-2.11.51l-1.06,1.5a1.15,1.15,0,0,0-.14,1.09,1.44,1.44,0,0,0,.74.78l.13.06,3,1.22a1.8,1.8,0,0,0,2.11-.52l1.05-1.49A1.18,1.18,0,0,0,132.52,247.67Zm-3,2.47-3-1.22a.74.74,0,0,1-.42-.41.56.56,0,0,1,.07-.53l1.06-1.49a.84.84,0,0,1,1-.25l3,1.22.06,0a.7.7,0,0,1,.36.38.56.56,0,0,1-.07.53l-.16.22a.33.33,0,0,0-.1-.06l-.84-.35a.59.59,0,0,0-.74.2.44.44,0,0,0,.26.63l.83.35h0l-.34.49A.88.88,0,0,1,129.57,250.14Z" style="fill:#fff"></path><path d="M183.46,215.59a14,14,0,0,1,2.85,11c-.71,5.83-2.55,14.3-1.53,19.59s-1.73,10.48-4.23,10.58c0,0,3.07-2.2,2.94-5.43s-1-8.64-1-8.64-.43,5.46-4,7.53-12.47-1.3-15.32-9.65-7.42-10.63-9.69-14.25-2.15-7,3.36-10.25S178.72,209.71,183.46,215.59Z" style="fill:#263238"></path><path d="M161.06,240.12l-2.61-1.38h0c-2,3.05-9.83,0-9.83,0-3.46-6.12,1.85-14.57,1.85-14.57,1.5,2.77,6.67,2.77,7.77,2.72h.21Z" style="fill:#eec1bb"></path><path d="M161.06,240.12l-2.61-1.38h0a14.52,14.52,0,0,0-4.93-1.09s-.42-6.32,3.93-10.25a2.87,2.87,0,0,1,.79-.51h.21Z" style="opacity:0.2;isolation:isolate"></path><path d="M178.15,213.56s9.48,4.6,6.51,12.7a13,13,0,0,1-11,8.49Z" style="fill:#263238"></path><path d="M174.91,216.81c6.72,3.87,6.82,8.72,3.32,15.93-4.37,9-9.83,14.07-17.18,7.38C151.07,231,163.73,210.38,174.91,216.81Z" style="fill:#eec1bb"></path><path d="M174.1,229.86a16.43,16.43,0,0,0,.35,3.92,2.14,2.14,0,0,1-2.21-.26Z" style="fill:#d4827d"></path><path d="M170.3,227c-.31.56-.86.84-1.23.64s-.43-.82-.12-1.38.85-.85,1.22-.65S170.6,226.38,170.3,227Z" style="fill:#263238"></path><path d="M170,225.51l1.48.18S170.32,226.39,170,225.51Z" style="fill:#263238"></path><path d="M177.32,230.62c-.3.56-.85.85-1.22.65s-.43-.83-.13-1.39.86-.85,1.23-.64S177.63,230.06,177.32,230.62Z" style="fill:#263238"></path><path d="M177,229.18l1.48.19S177.34,230.06,177,229.18Z" style="fill:#263238"></path><path d="M172.9,222.26a4,4,0,0,0-3.5-.66" style="fill:none;stroke:#263238;stroke-linecap:round;stroke-linejoin:round;stroke-width:0.706753540165186px"></path><path d="M178,224.79a3.6,3.6,0,0,1,2.36,2.1" style="fill:none;stroke:#263238;stroke-linecap:round;stroke-linejoin:round;stroke-width:0.706753540165186px"></path><path d="M161,223.92s6.33-3.72,8.3-8.26c0,0,16.47,2.22,9.34,16.13,0,0,8.22-11.27-3.19-18.19s-21.12,6.8-18,15.28C157.44,228.88,157.1,226.25,161,223.92Z" style="fill:#263238"></path><path d="M179.58,213.78s3.88,2.11,4.48,4.5-14.37,5.41-20.66,2.75c0,0-5.57,3.94-6,7.85,0,0-5.32-5.29.67-15.16S176.64,206.85,179.58,213.78Z" style="fill:#263238"></path><path d="M161.31,226a3.41,3.41,0,0,0-1.62-4.53c-2.22-1-5.68,2.74-1.08,6.75C159.27,228.77,160.11,228.28,161.31,226Z" style="fill:#eec1bb"></path><path d="M184,218.94s-7.18,6.81-16.51,4.61" style="fill:none;stroke:#263238;stroke-linecap:round;stroke-linejoin:round;stroke-width:0.706753540165186px"></path><path d="M167.49,232.11s-.56,2.25,2.13,4.5" style="fill:none;stroke:#263238;stroke-linecap:round;stroke-linejoin:round;stroke-width:0.706753540165186px"></path><path d="M152.48,248.32a64.72,64.72,0,0,1-14,.05,10.36,10.36,0,0,1-2.75.39,30.64,30.64,0,0,1-.78-5.57c-.27-6.16,1.09-17.1,2.58-19s8.37.9,9.18,6.09c0,0,.94,14,2.19,15.21C149.62,246.13,151.21,247.36,152.48,248.32Z" style="opacity:0.2;isolation:isolate"></path><path d="M141.46,218.94c-10.72,1.56-2.24,34.35,0,36.59s15.82,16.2,15.82,16.2l4.34-4.49s-12.46-15.92-13.81-17.92S146.73,224,146.73,224,147,218.14,141.46,218.94Z" style="fill:#6363FF"></path></g><g id="freepik--filing-cabinet--inject-1"><rect x="226.15" y="122.52" width="192.7" height="293.39" style="fill:#6363FF"></rect><rect x="226.15" y="122.52" width="192.7" height="293.39" style="fill:#fff;opacity:0.6000000000000001"></rect><rect x="344.01" y="122.52" width="74.84" height="293.39" style="opacity:0.2;isolation:isolate"></rect><rect x="231.79" y="279.51" width="105.91" height="105.91" style="opacity:0.2;isolation:isolate"></rect><rect x="310.95" y="279.51" width="26.75" height="105.91" style="opacity:0.2;isolation:isolate"></rect><polygon points="231.79 279.51 262.74 310.45 310.94 310.45 337.7 310.45 337.7 279.51 231.79 279.51" style="opacity:0.2;isolation:isolate"></polygon><rect x="231.79" y="164.63" width="105.91" height="105.91" style="opacity:0.2;isolation:isolate"></rect><rect x="231.79" y="164.63" width="102.89" height="105.91" style="fill:#6363FF"></rect><rect x="231.79" y="164.63" width="102.89" height="105.91" style="fill:#fff;opacity:0.7000000000000001"></rect><rect x="260.57" y="177.3" width="36.79" height="9.49" style="fill:#fff"></rect><path d="M313.39,224.41l-9.74-12.84h-1.94v8.72h-2.57l3.31,4.12a.27.27,0,0,1-.21.43H274.5a1.61,1.61,0,0,1-1.26-.63l-3-3.92H259.14l8,10a1.6,1.6,0,0,0,1.24.59h43.72a1.58,1.58,0,0,0,1.58-1.58v-3.95A1.58,1.58,0,0,0,313.39,224.41Z" style="opacity:0.1;isolation:isolate"></path><rect x="248.7" y="210.92" width="55.19" height="10.68" rx="1.55" style="fill:#6363FF"></rect><rect x="248.7" y="210.92" width="42.73" height="10.68" rx="1.55" style="fill:#fff;opacity:0.2"></rect><path d="M263.55,183.06a8.69,8.69,0,0,0,4.79-3.88,5.61,5.61,0,0,0-2.41,4.53c1.78.28,2.58-2.44,4.32-2.92l-.6,2.64a3.14,3.14,0,0,0,2.49-.85,5.11,5.11,0,0,0,3.68-1.44,1.36,1.36,0,0,0-1.68-.57l5.65.53a1,1,0,0,0-1.24,1.05,1,1,0,0,0,1.6.53,1,1,0,0,0,.34-.52,1.69,1.69,0,0,1,.16-.51c.2-.28.61-.25.94-.2a39.76,39.76,0,0,0,10.28.26" style="fill:none;stroke:#263238;stroke-linecap:round;stroke-linejoin:round;stroke-width:0.5px"></path><polygon points="337.7 330.02 344.01 337.87 344.01 415.91 249.47 415.91 226.15 390.21 337.7 330.02" style="opacity:0.1;isolation:isolate"></polygon><rect x="232.45" y="134.98" width="49.19" height="19.19" style="fill:#6363FF"></rect><rect x="232.45" y="134.98" width="16.42" height="19.19" style="fill:#fff"></rect><path d="M245.73,141.68c-.53,2.92-.84,4.24.11,6.42s.44,2.67-.61,3-9,2.34-9.62-.55.52-2.94,0-5.3-.84-5.15.08-6.5S245.73,141.68,245.73,141.68Z" style="fill:#263238"></path><path d="M233.37,151.77a11.59,11.59,0,0,1,6.72-1.79,23,23,0,0,1,8.06,1.79v1.41H233.37Z" style="fill:#6363FF"></path><path d="M243.14,150.6a3,3,0,0,1-1.81,1.85c-1.38-.3-3.36-2.28-3.36-2.28,1.17-.67.94-2.62.67-3.8v0a8.87,8.87,0,0,0-.24-.88.1.1,0,0,1,0,0l1.47-.22,2.17,1.92s0,.15-.08.38a5.86,5.86,0,0,0-.11,2.32,1,1,0,0,0,.12.25A1.51,1.51,0,0,0,243.14,150.6Z" style="fill:#eec1bb"></path><path d="M242,150.06a2.46,2.46,0,0,1-.72-.12c-1.39-.43-2.21-2.37-2.59-3.57v0a7.52,7.52,0,0,1-.24-.88.1.1,0,0,1,0,0l3.56,2.08a5.86,5.86,0,0,0-.11,2.32A1,1,0,0,0,242,150.06Z" style="opacity:0.2;isolation:isolate"></path><path d="M241.62,137.09s3.77-.12,4.17,2.94a4.63,4.63,0,0,1-2.06,4.52Z" style="fill:#263238"></path><path d="M241.13,138.66c2.78.11,3.61,1.63,3.7,4.5.12,3.58-.77,6.09-4.21,5.19C235.94,147.13,236.52,138.48,241.13,138.66Z" style="fill:#eec1bb"></path><path d="M243.05,142.93a5.58,5.58,0,0,0,.76,1.18.77.77,0,0,1-.75.29Z" style="fill:#d4827d"></path><path d="M241.36,142.64c0,.23-.13.41-.29.41s-.27-.19-.27-.42.13-.41.29-.41S241.36,142.41,241.36,142.64Z" style="fill:#263238"></path><path d="M241,142.23l.5-.19S241.27,142.46,241,142.23Z" style="fill:#263238"></path><path d="M244.19,142.63c0,.23-.13.42-.28.41s-.27-.19-.27-.41.13-.41.28-.41S244.2,142.41,244.19,142.63Z" style="fill:#263238"></path><path d="M243.86,142.23l.5-.19S244.11,142.45,243.86,142.23Z" style="fill:#263238"></path><path d="M240.18,141.22a.11.11,0,0,1-.08,0,.13.13,0,0,1,0-.18,1.53,1.53,0,0,1,1.33-.41.12.12,0,0,1,.11.14.14.14,0,0,1-.15.11,1.26,1.26,0,0,0-1.1.33A.13.13,0,0,1,240.18,141.22Z" style="fill:#263238"></path><path d="M244.52,141.08l-.07,0a1.21,1.21,0,0,0-1-.26.13.13,0,0,1-.16-.08.13.13,0,0,1,.08-.16,1.41,1.41,0,0,1,1.22.29.14.14,0,0,1,0,.18A.12.12,0,0,1,244.52,141.08Z" style="fill:#263238"></path><path d="M237.91,143.22a8.31,8.31,0,0,0,1.26-4s5.59-2,5.65,3.56c0,0,.73-4.94-4-5.23s-5.56,5.66-3.18,7.84C237.6,145.39,237.06,144.62,237.91,143.22Z" style="fill:#263238"></path><path d="M242.11,136.92s1.58,0,2.16.68-3.65,4.11-6.09,4.31c0,0-1.11,2.18-.58,3.48,0,0-2.56-.79-2.3-4.92A4.38,4.38,0,0,1,242.11,136.92Z" style="fill:#263238"></path><path d="M238.35,143.82a1.23,1.23,0,0,0-1.27-1.16c-.87.06-1.34,1.81.78,2.32C238.16,145.05,238.35,144.76,238.35,143.82Z" style="fill:#eec1bb"></path><path d="M239.9,142.16a.13.13,0,0,1-.12-.1.11.11,0,0,1,.09-.15,6.89,6.89,0,0,0,4.38-4.13.13.13,0,0,1,.24.08,7.14,7.14,0,0,1-4.56,4.29Z" style="fill:#263238"></path><path d="M242.75,145.94h0a1.81,1.81,0,0,1-1.52-1.17.13.13,0,0,1,.09-.15.13.13,0,0,1,.16.09s.2.74,1.33,1a.13.13,0,0,1,.09.15A.12.12,0,0,1,242.75,145.94Z" style="fill:#263238"></path><path d="M246.34,148.39a.13.13,0,0,1-.12-.09,3,3,0,0,0-.22-.48,4.18,4.18,0,0,1-.29-2.85l0-.19c.28-2.23.59-4.76-1.17-6.32a.12.12,0,0,1,0-.17.13.13,0,0,1,.18,0c1.87,1.64,1.54,4.24,1.26,6.53l0,.19c-.22,1.76,0,2.22.27,2.7a4.28,4.28,0,0,1,.22.52.12.12,0,0,1-.07.16Z" style="fill:#263238"></path><path d="M266.07,139.93H252.49a1.2,1.2,0,0,1-1.2-1.2h0a1.19,1.19,0,0,1,1.2-1.19h13.58a1.19,1.19,0,0,1,1.19,1.19h0A1.19,1.19,0,0,1,266.07,139.93Z" style="fill:#fff"></path><path d="M275.47,145.71H252.23a.94.94,0,0,1-.94-.94h0a.94.94,0,0,1,.94-1h23.24a.94.94,0,0,1,.94,1h0A.94.94,0,0,1,275.47,145.71Z" style="fill:#fff"></path><path d="M271.47,149.33H252.23a.94.94,0,0,1-.94-.94h0a.94.94,0,0,1,.94-.95h19.24a.94.94,0,0,1,.94.95h0A.94.94,0,0,1,271.47,149.33Z" style="fill:#fff"></path><path d="M329.61,291.11H272.93l-.58-3.66a1.67,1.67,0,0,0-1.69-1.42H255a2.2,2.2,0,0,0-2,1.42l-1.37,3.66H238.91a5,5,0,0,0-4.87,4.4l-7.75,71a3.87,3.87,0,0,0,3.91,4.41h90.7a5,5,0,0,0,4.86-4.41l7.75-71A3.86,3.86,0,0,0,329.61,291.11Z" style="fill:#6363FF"></path><path d="M329.61,291.11H272.93l-.58-3.66a1.67,1.67,0,0,0-1.69-1.42H255a2.2,2.2,0,0,0-2,1.42l-1.37,3.66H238.91a5,5,0,0,0-4.87,4.4l-7.75,71a3.87,3.87,0,0,0,3.91,4.41h90.7a5,5,0,0,0,4.86-4.41l7.75-71A3.86,3.86,0,0,0,329.61,291.11Z" style="opacity:0.4;isolation:isolate"></path><polygon points="226.44 368.2 229.48 294.38 327.54 294.38 322.66 366.58 226.44 368.2" style="fill:#6363FF"></polygon><polygon points="226.44 368.2 229.48 294.38 327.54 294.38 322.66 366.58 226.44 368.2" style="fill:#fff;opacity:0.7000000000000001"></polygon><path d="M319.64,371.2H228.93a4.22,4.22,0,0,1-4.35-4.11l.55-66.22a4.28,4.28,0,0,1,4.41-4.11h90.71a4.22,4.22,0,0,1,4.35,4.11l-.54,66.22A4.3,4.3,0,0,1,319.64,371.2Z" style="fill:#6363FF"></path><path d="M319.64,371.2H228.93a4.22,4.22,0,0,1-4.35-4.11l.55-66.22a4.28,4.28,0,0,1,4.41-4.11h90.71a4.22,4.22,0,0,1,4.35,4.11l-.54,66.22A4.3,4.3,0,0,1,319.64,371.2Z" style="opacity:0.25;isolation:isolate"></path><polygon points="283.24 296.76 285.08 363.94 235.45 363.94 232.57 296.76 283.24 296.76" style="opacity:0.15;isolation:isolate"></polygon><path d="M268.58,288.86H211.9l-1-3.64a1.9,1.9,0,0,0-1.84-1.42H193.43a1.9,1.9,0,0,0-1.84,1.42l-1,3.64H177.88a4.38,4.38,0,0,0-4.38,4.38v70.64a4.38,4.38,0,0,0,4.38,4.38h90.7a4.39,4.39,0,0,0,4.39-4.38V293.24A4.39,4.39,0,0,0,268.58,288.86Z" style="fill:#6363FF"></path><path d="M268.58,288.86H211.9l-1-3.64a1.9,1.9,0,0,0-1.84-1.42H193.43a1.9,1.9,0,0,0-1.84,1.42l-1,3.64H177.88a4.38,4.38,0,0,0-4.38,4.38v70.64a4.38,4.38,0,0,0,4.38,4.38h90.7a4.39,4.39,0,0,0,4.39-4.38V293.24A4.39,4.39,0,0,0,268.58,288.86Z" style="opacity:0.15;isolation:isolate"></path><polygon points="173.83 365.56 168.81 292.11 266.87 292.11 269.87 363.94 173.83 365.56" style="fill:#6363FF"></polygon><polygon points="173.83 365.56 168.81 292.11 266.87 292.11 269.87 363.94 173.83 365.56" style="fill:#fff;opacity:0.8"></polygon><path d="M267.35,368.54h-90.7a4.81,4.81,0,0,1-4.8-4.09l-6.69-65.88a3.77,3.77,0,0,1,4-4.09h90.71a4.79,4.79,0,0,1,4.79,4.09l6.69,65.88A3.77,3.77,0,0,1,267.35,368.54Z" style="fill:#6363FF"></path><polygon points="243.72 344.26 337.7 330.02 337.7 381.19 250.6 397.86 243.72 344.26" style="fill:#6363FF"></polygon><polygon points="243.72 344.26 337.7 330.02 337.7 381.19 250.6 397.86 243.72 344.26" style="fill:#fff;opacity:0.5"></polygon><polygon points="243.72 344.26 245.04 345.71 337.7 331.46 337.7 330.02 243.72 344.26" style="fill:#fff;opacity:0.7000000000000001"></polygon><polygon points="259.14 341.93 263.38 342.89 266.87 394.75 250.6 397.86 243.72 344.26 259.14 341.93" style="opacity:0.2;isolation:isolate"></polygon><polygon points="259.14 404.6 153.24 404.6 146.58 300.27 252.49 300.27 259.14 404.6" style="fill:#6363FF"></polygon><polygon points="259.14 404.6 153.24 404.6 146.58 300.27 252.49 300.27 259.14 404.6" style="fill:#fff;opacity:0.7000000000000001"></polygon><polygon points="259.14 404.6 256.13 404.6 249.47 300.27 252.49 300.27 259.14 404.6" style="opacity:0.2;isolation:isolate"></polygon><polygon points="213.54 322.11 176.75 322.11 176.16 312.75 212.95 312.75 213.54 322.11" style="fill:#fff"></polygon><path d="M231.94,359.16l-10.55-12.65h-1.94l.55,8.59h-2.57l3.56,4.06a.25.25,0,0,1-.18.42H193.07a1.72,1.72,0,0,1-1.3-.62l-3.22-3.86H177.43l8.66,9.87a1.7,1.7,0,0,0,1.27.59h43.73a1.46,1.46,0,0,0,1.48-1.56l-.25-3.89A1.69,1.69,0,0,0,231.94,359.16Z" style="opacity:0.1;isolation:isolate"></path><path d="M220.71,356.4H168.62a1.66,1.66,0,0,1-1.64-1.53l-.48-7.47a1.42,1.42,0,0,1,1.45-1.52H220a1.67,1.67,0,0,1,1.65,1.52l.47,7.47A1.42,1.42,0,0,1,220.71,356.4Z" style="fill:#6363FF"></path><path d="M208.25,356.4H168.62a1.66,1.66,0,0,1-1.64-1.53l-.48-7.47a1.42,1.42,0,0,1,1.45-1.52h39.63a1.65,1.65,0,0,1,1.64,1.52l.48,7.47A1.43,1.43,0,0,1,208.25,356.4Z" style="fill:#fff;opacity:0.2"></path><path d="M179.85,317.44a3.52,3.52,0,0,0,3.87-1.17c0,.79-.23,1.81-.18,2.71a8.48,8.48,0,0,0,1.7-2.45c-.74,1.63,1.2,2,2.34,1.46a2.28,2.28,0,0,0,1.33-1.95c0-.26-.11-.58-.37-.63s-.46.17-.59.38c-.46.71-1,2.67.12,2.91s2.42-1.65,2.72-2.42a1.7,1.7,0,0,0-.93,1.66c1.16-.05,2.75.23,2.82-1.33-.1,2.06,1.86,1.36,2.58,0-.23.73.86,1.1,1.62,1.09l10.21-.23" style="fill:none;stroke:#263238;stroke-linecap:round;stroke-linejoin:round;stroke-width:0.5px"></path></g></svg>